<mxfile host="app.diagrams.net" modified="2023-12-11T19:08:44.394Z" agent="Mozilla/5.0 (Windows NT 10.0; Win64; x64) AppleWebKit/537.36 (KHTML, like Gecko) Chrome/120.0.0.0 Safari/537.36" etag="RhNSI0zv0EaJQy6mbMkm" version="22.1.7" type="device">
  <diagram name="Page-1" id="g5rQTA7hFb7cEKdL0jF-">
    <mxGraphModel dx="1195" dy="625" grid="1" gridSize="10" guides="1" tooltips="1" connect="1" arrows="1" fold="1" page="1" pageScale="1" pageWidth="1169" pageHeight="827" math="0" shadow="0">
      <root>
        <mxCell id="0" />
        <mxCell id="1" parent="0" />
        <mxCell id="8b1DxNh-yHOT2dL22UhI-6" style="edgeStyle=orthogonalEdgeStyle;rounded=0;orthogonalLoop=1;jettySize=auto;html=1;exitX=0.5;exitY=1;exitDx=0;exitDy=0;entryX=1;entryY=0.25;entryDx=0;entryDy=0;fillColor=#f5f5f5;strokeColor=#666666;" parent="1" target="8b1DxNh-yHOT2dL22UhI-3" edge="1">
          <mxGeometry relative="1" as="geometry">
            <mxPoint x="870" y="414" as="sourcePoint" />
            <mxPoint x="640" y="510" as="targetPoint" />
            <Array as="points">
              <mxPoint x="870" y="510" />
            </Array>
          </mxGeometry>
        </mxCell>
        <mxCell id="8b1DxNh-yHOT2dL22UhI-1" value="VIEW" style="swimlane;whiteSpace=wrap;html=1;startSize=23;fillColor=#d5e8d4;strokeColor=#82b366;" parent="1" vertex="1">
          <mxGeometry x="820" y="214" width="215" height="200" as="geometry" />
        </mxCell>
        <mxCell id="8b1DxNh-yHOT2dL22UhI-28" value="&lt;div style=&quot;text-align: left;&quot;&gt;&lt;div&gt;8) the BwoserAgent (or a terminal) will&lt;/div&gt;&lt;div&gt;will display the JSON accordingly&lt;/div&gt;&lt;/div&gt;" style="text;html=1;align=center;verticalAlign=middle;resizable=0;points=[];autosize=1;strokeColor=none;fillColor=none;" parent="8b1DxNh-yHOT2dL22UhI-1" vertex="1">
          <mxGeometry x="-7.5" y="66" width="230" height="40" as="geometry" />
        </mxCell>
        <mxCell id="8b1DxNh-yHOT2dL22UhI-29" value="APP / TERMINAL" style="shape=cube;whiteSpace=wrap;html=1;boundedLbl=1;backgroundOutline=1;darkOpacity=0.05;darkOpacity2=0.1;" parent="8b1DxNh-yHOT2dL22UhI-1" vertex="1">
          <mxGeometry x="55" y="114" width="95" height="70" as="geometry" />
        </mxCell>
        <mxCell id="8b1DxNh-yHOT2dL22UhI-22" style="edgeStyle=orthogonalEdgeStyle;rounded=0;orthogonalLoop=1;jettySize=auto;html=1;exitX=0.5;exitY=1;exitDx=0;exitDy=0;entryX=0;entryY=0.75;entryDx=0;entryDy=0;fillColor=#f5f5f5;strokeColor=#666666;" parent="1" source="8b1DxNh-yHOT2dL22UhI-2" target="8b1DxNh-yHOT2dL22UhI-3" edge="1">
          <mxGeometry relative="1" as="geometry" />
        </mxCell>
        <mxCell id="8b1DxNh-yHOT2dL22UhI-2" value="MODEL" style="swimlane;whiteSpace=wrap;html=1;fillColor=#e1d5e7;strokeColor=#9673a6;" parent="1" vertex="1">
          <mxGeometry x="90" y="214" width="215" height="200" as="geometry" />
        </mxCell>
        <mxCell id="8b1DxNh-yHOT2dL22UhI-18" value="&lt;div&gt;5) with the valid ID, it will look for a&lt;/div&gt;&lt;div&gt;pokemon with Prisma using&lt;/div&gt;&lt;div&gt;findUnique&lt;/div&gt;" style="text;html=1;align=left;verticalAlign=middle;resizable=0;points=[];autosize=1;strokeColor=none;fillColor=none;" parent="8b1DxNh-yHOT2dL22UhI-2" vertex="1">
          <mxGeometry x="20" y="54" width="210" height="60" as="geometry" />
        </mxCell>
        <mxCell id="8b1DxNh-yHOT2dL22UhI-19" value="6) will return that pokemon" style="text;html=1;align=center;verticalAlign=middle;resizable=0;points=[];autosize=1;strokeColor=none;fillColor=none;" parent="8b1DxNh-yHOT2dL22UhI-2" vertex="1">
          <mxGeometry x="10" y="130" width="160" height="30" as="geometry" />
        </mxCell>
        <mxCell id="8b1DxNh-yHOT2dL22UhI-13" style="edgeStyle=orthogonalEdgeStyle;rounded=0;orthogonalLoop=1;jettySize=auto;html=1;exitX=0;exitY=0.25;exitDx=0;exitDy=0;entryX=0.75;entryY=1;entryDx=0;entryDy=0;fillColor=#f5f5f5;strokeColor=#666666;" parent="1" source="8b1DxNh-yHOT2dL22UhI-3" target="8b1DxNh-yHOT2dL22UhI-2" edge="1">
          <mxGeometry relative="1" as="geometry" />
        </mxCell>
        <mxCell id="8b1DxNh-yHOT2dL22UhI-26" style="edgeStyle=orthogonalEdgeStyle;rounded=0;orthogonalLoop=1;jettySize=auto;html=1;exitX=1;exitY=0.75;exitDx=0;exitDy=0;entryX=0.75;entryY=1;entryDx=0;entryDy=0;fillColor=#f5f5f5;strokeColor=#666666;" parent="1" source="8b1DxNh-yHOT2dL22UhI-3" target="8b1DxNh-yHOT2dL22UhI-1" edge="1">
          <mxGeometry relative="1" as="geometry" />
        </mxCell>
        <mxCell id="8b1DxNh-yHOT2dL22UhI-3" value="CONTROLLER" style="swimlane;whiteSpace=wrap;html=1;fillColor=#f8cecc;strokeColor=#b85450;" parent="1" vertex="1">
          <mxGeometry x="440" y="460" width="240" height="200" as="geometry" />
        </mxCell>
        <mxCell id="8b1DxNh-yHOT2dL22UhI-10" value="2) getById is invoked" style="text;html=1;align=left;verticalAlign=middle;resizable=0;points=[];autosize=1;strokeColor=none;fillColor=none;" parent="8b1DxNh-yHOT2dL22UhI-3" vertex="1">
          <mxGeometry x="10" y="30" width="130" height="30" as="geometry" />
        </mxCell>
        <mxCell id="8b1DxNh-yHOT2dL22UhI-11" value="3) the ID is validated and parsed" style="text;html=1;align=left;verticalAlign=middle;resizable=0;points=[];autosize=1;strokeColor=none;fillColor=none;" parent="8b1DxNh-yHOT2dL22UhI-3" vertex="1">
          <mxGeometry x="10" y="60" width="200" height="30" as="geometry" />
        </mxCell>
        <mxCell id="8b1DxNh-yHOT2dL22UhI-25" value="&lt;div&gt;7) return the pokemon as a&amp;nbsp;&lt;/div&gt;&lt;div&gt;JSON to the view&lt;/div&gt;" style="text;html=1;align=left;verticalAlign=middle;resizable=0;points=[];autosize=1;strokeColor=none;fillColor=none;" parent="8b1DxNh-yHOT2dL22UhI-3" vertex="1">
          <mxGeometry x="10" y="140" width="170" height="40" as="geometry" />
        </mxCell>
        <mxCell id="Z2QYs02gydA_OATAngGx-1" value="&lt;div&gt;4) the function is called to the MODEL&lt;/div&gt;&lt;div&gt;the function getById(ID)&lt;/div&gt;" style="text;html=1;align=left;verticalAlign=middle;resizable=0;points=[];autosize=1;strokeColor=none;fillColor=none;" vertex="1" parent="8b1DxNh-yHOT2dL22UhI-3">
          <mxGeometry x="10" y="100" width="230" height="40" as="geometry" />
        </mxCell>
        <mxCell id="8b1DxNh-yHOT2dL22UhI-4" value="&lt;h1&gt;REQUEST GET (by ID)&lt;/h1&gt;&lt;p&gt;In this example I will show how the API reacts with the MVC architecture when receiving a get request Endopoint: &lt;b&gt;http://localhost:4000/mypokeapi/25&lt;/b&gt;&lt;/p&gt;" style="text;html=1;strokeColor=none;fillColor=none;spacing=5;spacingTop=-20;whiteSpace=wrap;overflow=hidden;rounded=0;" parent="1" vertex="1">
          <mxGeometry x="410" y="94" width="290" height="120" as="geometry" />
        </mxCell>
        <mxCell id="8b1DxNh-yHOT2dL22UhI-7" value="&amp;lt;==&amp;nbsp; 1) http://localhost:4000/mypokeapi/25" style="text;html=1;strokeColor=none;fillColor=none;align=center;verticalAlign=middle;whiteSpace=wrap;rounded=0;" parent="1" vertex="1">
          <mxGeometry x="690" y="510" width="230" height="30" as="geometry" />
        </mxCell>
        <mxCell id="8b1DxNh-yHOT2dL22UhI-15" value="PokemonController.ts" style="text;html=1;align=center;verticalAlign=middle;resizable=0;points=[];autosize=1;strokeColor=none;fillColor=none;" parent="1" vertex="1">
          <mxGeometry x="480" y="430" width="140" height="30" as="geometry" />
        </mxCell>
        <mxCell id="8b1DxNh-yHOT2dL22UhI-16" value="PokemonModel.ts" style="text;html=1;align=center;verticalAlign=middle;resizable=0;points=[];autosize=1;strokeColor=none;fillColor=none;" parent="1" vertex="1">
          <mxGeometry x="130" y="184" width="120" height="30" as="geometry" />
        </mxCell>
        <mxCell id="8b1DxNh-yHOT2dL22UhI-17" value="BrowserAgent (chrome)" style="text;html=1;align=center;verticalAlign=middle;resizable=0;points=[];autosize=1;strokeColor=none;fillColor=none;" parent="1" vertex="1">
          <mxGeometry x="845" y="184" width="150" height="30" as="geometry" />
        </mxCell>
        <mxCell id="8b1DxNh-yHOT2dL22UhI-23" value="&amp;lt;== 4)" style="text;html=1;align=center;verticalAlign=middle;resizable=0;points=[];autosize=1;strokeColor=none;fillColor=none;" parent="1" vertex="1">
          <mxGeometry x="300" y="480" width="60" height="30" as="geometry" />
        </mxCell>
        <mxCell id="8b1DxNh-yHOT2dL22UhI-24" value="6) ==&amp;gt;" style="text;html=1;align=center;verticalAlign=middle;resizable=0;points=[];autosize=1;strokeColor=none;fillColor=none;" parent="1" vertex="1">
          <mxGeometry x="185" y="578" width="60" height="30" as="geometry" />
        </mxCell>
        <mxCell id="8b1DxNh-yHOT2dL22UhI-27" value="7) JSON (Pikachu) ==&amp;gt;" style="text;html=1;align=center;verticalAlign=middle;resizable=0;points=[];autosize=1;strokeColor=none;fillColor=none;" parent="1" vertex="1">
          <mxGeometry x="690" y="578" width="150" height="30" as="geometry" />
        </mxCell>
      </root>
    </mxGraphModel>
  </diagram>
</mxfile>
